<svg width="154" height="203" viewBox="0 0 154 203" fill="none" xmlns="http://www.w3.org/2000/svg">
<path d="M41.4306 191.616L35.25 195.635V188.262V176.75C35.25 164.245 33.45 155.753 31.0158 149.238C28.5435 142.626 25.2601 137.582 21.3235 131.615L21.3105 131.595L21.2978 131.575L21.1985 131.421L21.1933 131.413C17.3387 125.575 12.888 118.834 9.53036 109.894L9.52768 109.887C6.11196 100.738 4 89.7677 4 75.1875C4 35.6312 36.8142 3.99995 76.75 3.99995C116.686 3.99995 149.5 35.6312 149.5 75.1875C149.5 83.6601 148.929 95.9562 142.37 110.769C135.863 125.499 123.78 141.981 101.959 159.705C101.959 159.705 101.959 159.705 101.959 159.705L91.7719 167.98L85.25 173.277V164.875V151.75C85.25 149.383 85.0383 147.164 84.6653 145.091C80.1266 158.217 70.3992 172.794 51.0806 185.341C51.0799 185.341 51.0793 185.342 51.0786 185.342L41.4306 191.616Z" fill="url(#paint0_linear_54_1053)" stroke="black" stroke-width="8"/>
<circle cx="76.6641" cy="72" r="40" fill="white"/>
<path d="M76.6644 32C97.0644 32 113.914 47.25 116.364 67H96.0644C93.8144 58.35 85.9644 52 76.6644 52C67.3644 52 59.5144 58.35 57.3144 67H36.9644C39.4144 47.25 56.2644 32 76.6644 32Z" fill="#FF0000"/>
<path d="M76.6641 22C49.0641 22 26.6641 44.4 26.6641 72C26.6641 99.6 49.0641 122 76.6641 122C104.264 122 126.664 99.6 126.664 72C126.664 44.4 104.264 22 76.6641 22ZM76.6641 32C97.0641 32 113.914 47.25 116.364 67H96.0641C93.8141 58.35 85.9641 52 76.6641 52C67.3641 52 59.5141 58.35 57.3141 67H36.9641C39.4141 47.25 56.2641 32 76.6641 32ZM86.6641 72C86.6641 77.5 82.1641 82 76.6641 82C71.1641 82 66.6641 77.5 66.6641 72C66.6641 66.5 71.1641 62 76.6641 62C82.1641 62 86.6641 66.5 86.6641 72ZM76.6641 112C56.2641 112 39.4141 96.75 36.9641 77H57.2641C59.4641 85.65 67.3141 92 76.6141 92C85.9141 92 93.7641 85.65 95.9641 77H116.264C113.914 96.75 97.0641 112 76.6641 112Z" fill="black"/>
<defs>
<linearGradient id="paint0_linear_54_1053" x1="39.5" y1="188.262" x2="81.5" y2="8.26245" gradientUnits="userSpaceOnUse">
<stop offset="0.22" stop-color="#DD2C00"/>
<stop offset="1" stop-color="#FFC400"/>
</linearGradient>
</defs>
</svg>
