<svg width="150" height="151" viewBox="0 0 150 151" fill="none" xmlns="http://www.w3.org/2000/svg">
<path d="M75 150.121C36.461 150.121 4.62846 121.311 0 84H38.3501C42.6008 100.341 57.4307 112.337 75 112.337C92.5693 112.337 107.399 100.341 111.555 84H150C145.372 121.311 113.539 150.121 75 150.121Z" fill="#CCCCCC"/>
<path d="M75 0C113.539 0 145.372 28.8098 150 66.1209H111.65C107.399 49.7796 92.5693 37.7834 75 37.7834C57.4307 37.7834 42.6008 49.7796 38.4446 66.1209H0C4.62846 28.8098 36.461 0 75 0Z" fill="#CCCCCC"/>
<circle cx="75" cy="75" r="19" fill="#CCCCCC"/>
</svg>
